<?xml version="1.0" encoding="utf-8"?>
<!-- Generator: Adobe Illustrator 25.1.0, SVG Export Plug-In . SVG Version: 6.00 Build 0)  -->
<svg version="1.1" id="Layer_1" xmlns="http://www.w3.org/2000/svg" xmlns:xlink="http://www.w3.org/1999/xlink" x="0px" y="0px"
	 viewBox="0 0 424.35 279.28" style="enable-background:new 0 0 424.35 279.28;" xml:space="preserve">
<style type="text/css">
	.st0{fill:#00B8B1;}
	.st1{fill:#354B60;}
	.st2{fill:#374F68;}
	.st3{fill:#374F68;stroke:#374F68;stroke-miterlimit:10;}
	.st4{fill:#A3A7AC;}
</style>
<path class="st0" d="M86.05,172.56c6.46,0.22,12.3-2.4,16.38-6.7c5.28-5.56,12.39-9.02,20.05-9.02h5.34
	c0.38,5.75,1.31,11.34,2.73,16.73h26.36c0.88-1.87,2.43-3.43,4.51-4.25c2.22-0.88,4.58-0.75,6.59,0.17
	c2.72,1.25,5.79,1.45,8.58,0.39c-0.88-2.93-1.44-6.01-1.65-9.18h-2.5c-3.58,0-6.9,1.62-9.36,4.21c-1.91,2.01-4.64,3.23-7.65,3.13
	c-5.21-0.18-9.53-4.48-9.73-9.68c-0.22-5.75,4.38-10.49,10.08-10.49c2.86,0,5.44,1.19,7.27,3.11c2.53,2.64,5.94,4.24,9.59,4.24h2.3
	c0.27-4.16,1.16-8.15,2.57-11.89l-0.06-0.03c-2.74-1.18-5.81-1.05-8.55,0.12c-2.12,0.91-4.61,0.94-6.89-0.14
	c-3.93-1.86-5.81-6.58-4.24-10.63c1.73-4.47,6.82-6.57,11.18-4.69c2.19,0.95,3.77,2.71,4.54,4.78c1.05,2.83,3.12,5.17,5.88,6.39
	c1.56-3.04,3.48-5.87,5.71-8.42l-1.77-1.77c-2.53-2.53-6.02-3.73-9.6-3.64c-2.77,0.07-5.56-0.99-7.62-3.2
	c-3.56-3.81-3.57-9.9-0.03-13.73c3.91-4.22,10.51-4.32,14.54-0.29c2.02,2.02,3,4.69,2.95,7.34c-0.08,3.65,1.2,7.2,3.78,9.78
	l1.63,1.63c2.93-2.56,6.21-4.72,9.78-6.38l-0.06-0.16c-1.1-2.77-3.37-4.85-6.14-5.96c-2.14-0.86-3.93-2.6-4.77-4.97
	c-1.46-4.09,0.54-8.76,4.51-10.51c4.39-1.94,9.47,0.17,11.22,4.59c0.88,2.22,0.75,4.58-0.17,6.59c-1.27,2.76-1.46,5.9-0.34,8.73
	c3.32-1.12,6.82-1.83,10.46-2.06v-2.5c0-3.58-1.62-6.9-4.21-9.36c-2.01-1.91-3.23-4.64-3.13-7.65c0.18-5.21,4.48-9.53,9.68-9.73
	c5.75-0.22,10.49,4.38,10.49,10.08c0,2.86-1.19,5.44-3.11,7.27c-2.64,2.52-4.24,5.94-4.24,9.59v2.3c3.65,0.24,7.17,0.95,10.51,2.08
	l0.08-0.17c1.18-2.74,1.05-5.81-0.12-8.55c-0.91-2.12-0.94-4.61,0.14-6.89c1.86-3.93,6.58-5.81,10.63-4.24
	c4.47,1.73,6.57,6.82,4.69,11.18c-0.95,2.19-2.71,3.77-4.78,4.54c-2.82,1.05-5.15,3.1-6.37,5.84c3.55,1.66,6.82,3.81,9.73,6.36
	l1.77-1.77c2.53-2.53,3.73-6.02,3.64-9.6c-0.07-2.77,0.99-5.56,3.2-7.62c3.81-3.56,9.9-3.57,13.73-0.03
	c4.22,3.91,4.32,10.51,0.29,14.54c-2.02,2.02-4.69,3-7.34,2.95c-3.65-0.08-7.2,1.2-9.78,3.78l-1.63,1.63
	c2.32,2.65,4.31,5.6,5.91,8.79c2.42-1.18,4.25-3.29,5.27-5.82c0.86-2.14,2.6-3.93,4.97-4.77c4.09-1.46,8.76,0.54,10.51,4.51
	c1.94,4.39-0.17,9.47-4.59,11.22c-2.22,0.88-4.58,0.75-6.59-0.17c-2.44-1.12-5.17-1.4-7.72-0.68c1.31,3.59,2.12,7.42,2.38,11.4h2.5
	c3.58,0,6.9-1.62,9.36-4.21c1.91-2.01,4.64-3.23,7.65-3.13c5.21,0.18,9.53,4.48,9.73,9.68c0.22,5.75-4.38,10.49-10.08,10.49
	c-2.86,0-5.44-1.19-7.27-3.11c-2.52-2.64-5.94-4.24-9.59-4.24h-2.3c-0.25,3.8-1.01,7.45-2.21,10.9c2.34,0.6,4.83,0.36,7.09-0.61
	c2.12-0.91,4.61-0.94,6.89,0.14c1.21,0.57,2.23,1.42,3.01,2.44h29.6c1.42-5.4,2.36-10.99,2.73-16.73h4.91
	c7.82,0,15.13,3.43,20.54,9.08c3.93,4.1,9.45,6.66,15.58,6.66c12.22,0,22.06-10.14,21.59-22.46c-0.43-11.15-9.69-20.36-20.84-20.74
	c-6.46-0.22-12.3,2.4-16.38,6.7c-5.28,5.56-12.39,9.02-20.05,9.02h-5.34c-0.56-8.53-2.32-16.73-5.12-24.43
	c5.46-1.54,11.3-0.93,16.53,1.46c4.3,1.97,9.37,2.26,14.11,0.37c9.46-3.75,13.98-14.63,9.83-24.03c-3.76-8.51-13.76-12.8-22.51-9.67
	c-5.07,1.81-8.79,5.63-10.64,10.22c-2.18,5.42-6.08,9.93-11.27,12.47c-3.41-6.83-7.67-13.17-12.66-18.86l3.47-3.47
	c5.53-5.53,13.13-8.27,20.94-8.1c5.68,0.12,11.39-1.98,15.72-6.31c8.64-8.64,8.43-22.77-0.62-31.15c-8.19-7.58-21.25-7.55-29.4,0.07
	c-4.72,4.41-7,10.39-6.84,16.33c0.2,7.66-2.38,15.13-7.8,20.55l-3.78,3.78c-6.24-5.47-13.25-10.07-20.85-13.62
	c2.61-5.88,7.6-10.26,13.64-12.5c4.44-1.65,8.22-5.03,10.24-9.71c4.04-9.34-0.46-20.23-10.04-23.94
	c-8.67-3.36-18.78,0.67-22.76,9.08c-2.3,4.87-2.23,10.2-0.29,14.75c2.5,5.88,2.8,12.46,0.26,18.32l-0.15,0.35
	c-7.14-2.41-14.69-3.94-22.51-4.45v-4.91c0-7.82,3.43-15.13,9.08-20.54c4.1-3.93,6.66-9.45,6.66-15.58
	c0-12.22-10.14-22.06-22.46-21.59c-11.15,0.43-20.36,9.69-20.74,20.84c-0.22,6.46,2.4,12.3,6.71,16.38
	c5.56,5.28,9.02,12.39,9.02,20.05v5.34c-7.79,0.51-15.3,2.02-22.41,4.41c-2.39-6.05-1.97-12.76,0.74-18.67
	c1.97-4.3,2.26-9.36,0.37-14.11c-3.75-9.46-14.63-13.98-24.03-9.83c-8.51,3.76-12.8,13.76-9.67,22.51
	c1.81,5.07,5.63,8.79,10.22,10.64c5.93,2.38,10.79,6.83,13.14,12.77l0.13,0.34c-7.64,3.56-14.69,8.18-20.96,13.67l-3.47-3.47
	c-5.53-5.53-8.27-13.13-8.1-20.94c0.12-5.68-1.98-11.39-6.31-15.72c-8.64-8.64-22.77-8.43-31.15,0.62
	c-7.58,8.19-7.55,21.25,0.07,29.4c4.41,4.72,10.39,7,16.33,6.84c7.66-0.2,15.13,2.38,20.55,7.8l3.78,3.78
	c-4.78,5.46-8.91,11.51-12.25,18.03c-5.91-2.6-10.32-7.61-12.57-13.68c-1.65-4.44-5.03-8.22-9.71-10.24
	c-9.34-4.04-20.23,0.46-23.94,10.04c-3.36,8.67,0.67,18.78,9.08,22.76c4.87,2.3,10.2,2.23,14.75,0.29c5.88-2.5,12.46-2.8,18.32-0.26
	l0.11,0.05c-3.03,8-4.93,16.55-5.51,25.47h-4.91c-7.82,0-15.13-3.43-20.54-9.08c-3.93-4.1-9.45-6.66-15.58-6.66
	c-12.22,0-22.06,10.14-21.59,22.46C65.64,162.98,74.9,172.19,86.05,172.56z"/>
<circle class="st1" cx="216.18" cy="155.3" r="16.66"/>
<g>
	<g>
		<path class="st2" d="M0,215.87c0-18.34,13.92-33.31,33.79-33.31c13.73,0,19.97,5.18,24.57,9.12l-5.09,7.3
			c-5.66-4.99-11.9-7.97-20.06-7.97c-14.88,0-23.81,11.04-23.81,24.86c0,13.54,9.12,23.71,24.57,23.71
			c10.75,0,17.18-5.66,21.69-9.79l4.99,6.43c-3.55,4.22-12.1,11.81-26.69,11.81C11.23,248.03,0,233.63,0,215.87z"/>
		<path class="st2" d="M134.59,214.91c0,19.01-13.73,33.12-33.6,33.12c-18.91,0-33.6-13.15-33.6-33.12
			c0-18.33,14.78-32.35,33.6-32.35C119.8,182.56,134.59,196.58,134.59,214.91z M77.18,214.91c0,15.74,10.37,24.67,23.81,24.67
			c13.44,0,23.81-8.93,23.81-24.67c0-14.3-10.27-23.9-23.81-23.9C87.45,191.01,77.18,200.61,77.18,214.91z"/>
		<path class="st2" d="M139.39,183.72h10.08l16.8,39.07c1.25,3.07,3.74,11.42,3.74,11.42h0.58c0,0,2.5-8.35,3.74-11.42l16.8-39.07
			h10.08l-27.17,63.16h-7.49L139.39,183.72z"/>
		<path class="st2" d="M220.7,183.72v63.16h-9.41v-63.16H220.7z"/>
		<path class="st2" d="M257.18,183.72c27.65,0,37.82,13.73,37.82,31.49c0,21.12-12,31.68-33.79,31.68h-22.27v-63.16H257.18z
			 M248.35,238.43h12.77c16.61,0,24.29-7.01,24.29-23.23c0-12.86-6.62-23.04-26.49-23.04h-10.56V238.43z"/>
		<path class="st2" d="M359.1,191.2h-8.35v-7.22h16.36v62.91h-8V191.2z"/>
		<path class="st3" d="M390.86,230c1.13,6.53,5.31,10.35,12.62,10.35c9.22,0,14.18-6.27,13.92-24.71
			c-2.52,5.31-8.79,8.35-15.57,8.35c-11.57,0-20.19-7.22-20.19-20.53c0-12.01,7.13-20.71,20.71-20.71
			c17.05,0,22.01,12.01,22.01,31.5c0,20.97-4.79,32.71-21.32,32.71c-12.53,0-18.62-7.74-19.49-16.96H390.86z M416.44,203.9
			c0-8.53-4.87-14.53-13.92-14.53c-8.18,0-13.31,5.57-13.31,13.92c0,8.09,4.52,14.01,13.92,14.01
			C410.69,217.3,416.44,212.34,416.44,203.9z"/>
	</g>
	<g>
		<path class="st2" d="M324.85,203.87c1.65,0,3.26,0.43,4.85,1.28c1.59,0.85,2.82,2.07,3.71,3.66c0.88,1.59,1.33,3.23,1.33,4.94
			c0,2.74-0.97,5.08-2.9,7.01s-4.26,2.9-6.99,2.9c-2.74,0-5.08-0.97-7.01-2.9s-2.9-4.27-2.9-7.01c0-1.72,0.44-3.37,1.33-4.95
			c0.88-1.58,2.12-2.8,3.71-3.65C321.56,204.29,323.18,203.87,324.85,203.87z"/>
	</g>
</g>
<g>
	<path class="st4" d="M71.88,268.26c0-6.53,5.07-11.76,11.66-11.76c4.69,0,7.07,1.9,8.64,3.3l-0.85,1.19
		c-1.67-1.5-3.94-3.09-7.85-3.09c-5.78,0-10.06,4.59-10.06,10.37s3.88,10.03,10.2,10.03c4.42,0,7.17-2.45,8.53-3.91l0.85,1.05
		c-1.22,1.5-4.35,4.25-9.38,4.25C76.17,279.69,71.88,274.76,71.88,268.26z"/>
	<path class="st4" d="M123.46,267.99c0,6.7-4.76,11.7-11.63,11.7c-6.56,0-11.63-4.66-11.63-11.7c0-6.53,5.1-11.49,11.63-11.49
		S123.46,261.46,123.46,267.99z M101.77,267.99c0,6.32,4.39,10.3,10.06,10.3c5.88,0,10.06-4.21,10.06-10.3
		c0-5.81-4.35-10.1-10.06-10.1C106.15,257.89,101.77,262.18,101.77,267.99z"/>
	<path class="st4" d="M133.05,256.91h7.28c5.58,0,8.06,2.86,8.06,6.53c0,2.48-1.33,5.27-4.93,6.09v0.07l7.24,9.69h-1.77l-7.1-9.45
		h-7.24v9.45h-1.53V256.91z M140.87,268.5c4.28,0,5.98-2.45,5.98-5.07c0-2.89-1.87-5.13-6.53-5.13h-5.75v10.2H140.87z"/>
	<path class="st4" d="M180.37,267.99c0,6.7-4.76,11.7-11.63,11.7c-6.56,0-11.63-4.66-11.63-11.7c0-6.53,5.1-11.49,11.63-11.49
		S180.37,261.46,180.37,267.99z M158.68,267.99c0,6.32,4.39,10.3,10.06,10.3c5.88,0,10.06-4.21,10.06-10.3
		c0-5.81-4.35-10.1-10.06-10.1C163.07,257.89,158.68,262.18,158.68,267.99z"/>
	<path class="st4" d="M207.27,256.91h1.53v22.37h-1.39l-16.01-19.96h-0.03c0,0,0.14,3.26,0.14,5.27v14.69h-1.53v-22.37h1.43
		l15.98,19.99h0.03c0,0-0.14-4.32-0.14-5.61V256.91z"/>
	<path class="st4" d="M228.65,256.91l10.3,22.37h-1.63l-3.2-6.94h-12.14l-3.2,6.94h-1.6l10.27-22.37H228.65z M222.53,271.12h11.05
		l-3.91-8.43c-0.51-1.05-1.36-3.4-1.56-3.91h-0.1c-0.2,0.51-1.05,2.82-1.53,3.91L222.53,271.12z"/>
	<path class="st4" d="M242.49,256.91h1.63l7.65,17.13c0.41,0.95,1.22,3.26,1.22,3.26h0.14c0,0,0.82-2.31,1.22-3.26l7.65-17.13h1.63
		l-9.96,22.37h-1.22L242.49,256.91z"/>
	<path class="st4" d="M273.57,256.91v22.37h-1.53v-22.37H273.57z"/>
	<path class="st4" d="M285.13,256.91h7.28c5.58,0,8.06,2.86,8.06,6.53c0,2.48-1.33,5.27-4.93,6.09v0.07l7.24,9.69H301l-7.11-9.45
		h-7.24v9.45h-1.53V256.91z M292.95,268.5c4.28,0,5.98-2.45,5.98-5.07c0-2.89-1.87-5.13-6.53-5.13h-5.75v10.2H292.95z"/>
	<path class="st4" d="M329.8,256.91v13.77c0,6.19-4.32,9.01-9.49,9.01c-5.17,0-9.48-2.82-9.48-9.01v-13.77h1.53v13.77
		c0,5.1,3.3,7.62,7.96,7.62c4.66,0,7.96-2.52,7.96-7.62v-13.77H329.8z"/>
	<path class="st4" d="M339.32,277.48l0.51-1.33c1.94,0.99,4.42,1.87,7.55,1.87c4.76,0,7-2.55,7-5.17c0-1.6-0.71-2.75-2.07-3.47
		c-1.02-0.54-2.86-0.88-5-1.12c-2.24-0.24-4.11-0.54-5.44-1.22c-2.07-1.05-2.82-2.55-2.82-4.56c0-3.37,3.26-5.98,8.19-5.98
		c2.96,0,5.37,0.65,7.31,1.63l-0.48,1.29c-1.77-0.85-4.11-1.53-6.83-1.53c-4.32,0-6.66,2.07-6.66,4.59c0,1.5,0.54,2.58,2.07,3.37
		c1.09,0.54,2.86,0.78,4.93,1.02c2.24,0.27,4.28,0.65,5.41,1.26c1.9,1.02,2.92,2.55,2.92,4.72c0,3.37-2.92,6.56-8.53,6.56
		C343.98,279.41,341.5,278.63,339.32,277.48z"/>
</g>
</svg>
